{"title":"Repeaters 2011 DvDRip XviD Ac3 Feel-Free","uid":6604705,"size":1169237921,"categoryP":"video","categoryS":"movies","magnet":"?xt=urn:btih:ab24f228357752b99467f42e84f05dc0c7404504&amp;dn=Repeaters+2011+DvDRip+XviD+Ac3+Feel-Free&amp;tr=udp%3A%2F%2Ftracker.openbittorrent.com%3A80&amp;tr=udp%3A%2F%2Fopen.demonii.com%3A1337&amp;tr=udp%3A%2F%2Ftracker.coppersurfer.tk%3A6969&amp;tr=udp%3A%2F%2Fexodus.desync.com%3A6969","seeders":1,"leechers":0,"uploader":".BONE.","files":11,"time":1313348835,"description":"Genre:Drama | Sci-Fi | Thriller\nLanguage:English\n &lt;a href=&quot;\nhttp://www.imdb.com/title/tt1580426/&quot; rel=&quot;nofollow&quot; target=&quot;_NEW&quot;&gt;\nhttp://www.imdb.com/title/tt1580426/&lt;/a&gt;\n\nSource:DVD Thanks!\nSubtitles:Romana/English\n\nFormat : AVI\nFormat/Info : Audio Video Interleave\nFile size : 1.09 GiB\nDuration : 1h 29mn\nOverall bit rate : 1 745 Kbps\n\nVideo\nID : 0\nFormat : MPEG-4 Visual\nFormat profile : Advanced Simple@L5\nFormat settings, BVOP : Yes\nFormat settings, QPel : No\nFormat settings, GMC : No warppoints\nFormat settings, Matrix : Default (H.263)\nCodec ID : XVID\nCodec ID/Hint : XviD\nDuration : 1h 29mn\nBit rate : 1 287 Kbps\nWidth : 640 pixels\nHeight : 272 pixels\nDisplay aspect ratio : 2.35:1\nFrame rate : 23.976 fps\nColor space : YUV\nChroma subsampling : 4:2:0\nBit depth : 8 bits\nScan type : Progressive\nBits/(Pixel*Frame) : 0.308\nStream size : 822 MiB (74%)\nWriting library : XviD 1.2.1 (UTC 2008-12-04)\n\nAudio\nID : 1\nFormat : AC-3\nFormat/Info : Audio Coding 3\nMode extension : CM (complete main)\nCodec ID : 2000\nDuration : 1h 29mn\nBit rate mode : Constant\nBit rate : 448 Kbps\nChannel(s) : 6 channels\nChannel positions : Front: L C R, Side: L R, LFE\nSampling rate : 48.0 KHz\nBit depth : 16 bits\nStream size : 286 MiB (26%)\nAlignment : Aligned on interleaves\nInterleave, duration : 42 ms (1.00 video frame)\nInterleave, preload duration : 512 ms\n\n\nPlot:\nA gritty mind-bending thriller about three twenty-somethings who find themselves in an impossible time labyrinth, where each day they awaken to the same terrifying day as the preceding one.\n &lt;a href=&quot;\nhttp://www.pix2links.com/images/50173128734517215483.png&quot; rel=&quot;nofollow&quot; target=&quot;_NEW&quot;&gt;\nhttp://www.pix2links.com/images/50173128734517215483.png&lt;/a&gt;\n &lt;a href=&quot;\nhttp://www.pix2links.com/images/53784418940816714685.png&quot; rel=&quot;nofollow&quot; target=&quot;_NEW&quot;&gt;\nhttp://www.pix2links.com/images/53784418940816714685.png&lt;/a&gt;\n &lt;a href=&quot;\nhttp://www.pix2links.com/images/34371681423880991665.png&quot; rel=&quot;nofollow&quot; target=&quot;_NEW&quot;&gt;\nhttp://www.pix2links.com/images/34371681423880991665.png&lt;/a&gt;\n &lt;a href=&quot;\nhttp://www.pix2links.com/images/18567378797991025371.png&quot; rel=&quot;nofollow&quot; target=&quot;_NEW&quot;&gt;\nhttp://www.pix2links.com/images/18567378797991025371.png&lt;/a&gt;\n","torrent":{"xt":"urn:btih:ab24f228357752b99467f42e84f05dc0c7404504","amp;dn":"Repeaters+2011+DvDRip+XviD+Ac3+Feel-Free","amp;tr":["udp%3A%2F%2Ftracker.openbittorrent.com%3A80","udp%3A%2F%2Fopen.demonii.com%3A1337","udp%3A%2F%2Ftracker.coppersurfer.tk%3A6969","udp%3A%2F%2Fexodus.desync.com%3A6969"],"infoHash":"ab24f228357752b99467f42e84f05dc0c7404504","infoHashBuffer":{"type":"Buffer","data":[171,36,242,40,53,119,82,185,148,103,244,46,132,240,93,192,199,64,69,4]},"announce":[],"urlList":[]}}